<svg xmlns="http://www.w3.org/2000/svg" xmlns:xlink="http://www.w3.org/1999/xlink" viewBox="0,0,256,256" width="630px" height="630px" fill-rule="nonzero"><defs><linearGradient x1="24" y1="42" x2="24" y2="6.207" gradientUnits="userSpaceOnUse" id="color-1"><stop offset="0" stop-color="#1ac8fc"></stop><stop offset="0.258" stop-color="#1bb6fa"></stop><stop offset="0.775" stop-color="#1c86f5"></stop><stop offset="1" stop-color="#1d70f2"></stop></linearGradient></defs><g fill="#2d91ff" fill-rule="nonzero" stroke="none" stroke-width="1" stroke-linecap="butt" stroke-linejoin="miter" stroke-miterlimit="10" stroke-dasharray="" stroke-dashoffset="0" font-family="none" font-weight="none" font-size="none" text-anchor="none" style="mix-blend-mode: normal"><path d="M0,256v-256h256v256z" id="bgRectangle"></path></g><g fill="none" fill-rule="nonzero" stroke="none" stroke-width="1" stroke-linecap="butt" stroke-linejoin="miter" stroke-miterlimit="10" stroke-dasharray="" stroke-dashoffset="0" font-family="none" font-weight="none" font-size="none" text-anchor="none" style="mix-blend-mode: normal"><g transform="scale(5.33333,5.33333)"><path d="M34,42h-20c-4.411,0 -8,-3.589 -8,-8v-20c0,-4.411 3.589,-8 8,-8h20c4.411,0 8,3.589 8,8v20c0,4.411 -3.589,8 -8,8z" fill="url(#color-1)"></path><path d="M34,16c0.178,0 0.347,0.031 0.512,0.074l-7.824,7.825c-0.742,0.741 -1.715,1.111 -2.688,1.111c-0.973,0 -1.946,-0.37 -2.688,-1.111l-7.824,-7.825c0.165,-0.043 0.334,-0.074 0.512,-0.074h20M35.926,17.488c0.043,0.165 0.074,0.334 0.074,0.512v12c0,0.178 -0.031,0.347 -0.074,0.512l-6.512,-6.512l6.512,-6.512M12.074,17.488l6.512,6.512l-6.511,6.511c-0.044,-0.164 -0.075,-0.333 -0.075,-0.511v-12c0,-0.178 0.031,-0.347 0.074,-0.512M27.99,25.404l6.522,6.522c-0.165,0.043 -0.334,0.074 -0.512,0.074h-20c-0.178,0 -0.347,-0.031 -0.512,-0.074l6.522,-6.522c1.117,1.063 2.55,1.605 3.99,1.605c1.44,0 2.873,-0.542 3.99,-1.605M34,15h-20c-0.244,0 -0.495,0.035 -0.768,0.108c-0.346,0.092 -0.616,0.361 -0.709,0.707c-0.092,0.341 0.003,0.704 0.248,0.956c-0.189,-0.183 -0.44,-0.283 -0.697,-0.283c-0.087,0 -0.174,0.011 -0.26,0.034c-0.345,0.093 -0.615,0.363 -0.707,0.709c-0.072,0.274 -0.107,0.525 -0.107,0.769v12c0,0.244 0.035,0.495 0.108,0.768c0.092,0.346 0.361,0.616 0.707,0.709c0.086,0.023 0.173,0.034 0.26,0.034c0.257,0 0.508,-0.099 0.696,-0.282c-0.245,0.253 -0.34,0.616 -0.248,0.956c0.093,0.345 0.363,0.615 0.709,0.707c0.273,0.073 0.524,0.108 0.768,0.108h20c0.244,0 0.495,-0.035 0.768,-0.108c0.346,-0.092 0.616,-0.361 0.709,-0.707c0.092,-0.341 -0.003,-0.704 -0.248,-0.956c0.189,0.183 0.44,0.282 0.696,0.282c0.087,0 0.174,-0.011 0.26,-0.034c0.345,-0.093 0.615,-0.363 0.707,-0.709c0.073,-0.273 0.108,-0.524 0.108,-0.768v-12c0,-0.244 -0.035,-0.495 -0.108,-0.768c-0.092,-0.346 -0.361,-0.616 -0.707,-0.709c-0.086,-0.023 -0.173,-0.034 -0.26,-0.034c-0.257,0 -0.508,0.099 -0.697,0.282c0.245,-0.253 0.34,-0.616 0.248,-0.956c-0.093,-0.345 -0.363,-0.615 -0.709,-0.707c-0.272,-0.073 -0.523,-0.108 -0.767,-0.108z" fill="#000000" opacity="0.05"></path><path d="M34,15.5h-20c-0.203,0 -0.406,0.029 -0.64,0.091c-0.173,0.046 -0.308,0.181 -0.354,0.353c-0.046,0.173 0.003,0.357 0.129,0.483l7.824,7.825c0.811,0.811 1.891,1.258 3.041,1.258c1.15,0 2.23,-0.447 3.041,-1.257l7.824,-7.825c0.126,-0.126 0.176,-0.311 0.129,-0.483c-0.046,-0.173 -0.182,-0.307 -0.354,-0.353c-0.234,-0.063 -0.437,-0.092 -0.64,-0.092zM35.926,16.988c-0.131,0 -0.259,0.051 -0.354,0.146l-6.511,6.512c-0.195,0.195 -0.195,0.512 0,0.707l6.511,6.511c0.095,0.095 0.223,0.146 0.354,0.146c0.043,0 0.087,-0.006 0.13,-0.017c0.173,-0.046 0.307,-0.182 0.353,-0.354c0.062,-0.233 0.091,-0.436 0.091,-0.639v-12c0,-0.203 -0.029,-0.406 -0.091,-0.64c-0.046,-0.173 -0.181,-0.308 -0.353,-0.354c-0.043,-0.012 -0.087,-0.018 -0.13,-0.018zM12.074,16.988c-0.043,0 -0.087,0.006 -0.13,0.017c-0.173,0.046 -0.307,0.182 -0.353,0.354c-0.062,0.235 -0.091,0.438 -0.091,0.641v12c0,0.203 0.029,0.406 0.091,0.64c0.046,0.173 0.181,0.308 0.353,0.354c0.043,0.012 0.087,0.017 0.13,0.017c0.131,0 0.259,-0.051 0.354,-0.146l6.511,-6.511c0.195,-0.195 0.195,-0.512 0,-0.707l-6.511,-6.512c-0.095,-0.095 -0.223,-0.147 -0.354,-0.147zM27.99,24.904c-0.124,0 -0.248,0.046 -0.345,0.138c-0.995,0.946 -2.289,1.467 -3.645,1.467c-1.356,0 -2.651,-0.521 -3.645,-1.467c-0.097,-0.092 -0.221,-0.138 -0.345,-0.138c-0.128,0 -0.256,0.049 -0.354,0.146l-6.522,6.522c-0.126,0.126 -0.176,0.311 -0.129,0.483c0.047,0.172 0.182,0.307 0.354,0.353c0.235,0.063 0.438,0.092 0.641,0.092h20c0.203,0 0.406,-0.029 0.64,-0.091c0.173,-0.046 0.308,-0.181 0.354,-0.353c0.046,-0.172 -0.003,-0.357 -0.129,-0.483l-6.522,-6.522c-0.097,-0.098 -0.225,-0.147 -0.353,-0.147z" fill="#000000" opacity="0.07"></path><path d="M35.926,17.488l-6.512,6.512l6.511,6.511c0.044,-0.164 0.075,-0.333 0.075,-0.511v-12c0,-0.178 -0.031,-0.347 -0.074,-0.512zM26.688,23.899l7.824,-7.825c-0.165,-0.043 -0.334,-0.074 -0.512,-0.074h-20c-0.178,0 -0.347,0.031 -0.512,0.074l7.824,7.825c1.483,1.481 3.893,1.481 5.376,0zM12.074,17.488c-0.043,0.165 -0.074,0.334 -0.074,0.512v12c0,0.178 0.031,0.347 0.074,0.512l6.512,-6.512zM24,27.009c-1.44,0 -2.873,-0.542 -3.99,-1.605l-6.522,6.522c0.165,0.043 0.334,0.074 0.512,0.074h20c0.178,0 0.347,-0.031 0.512,-0.074l-6.522,-6.522c-1.117,1.063 -2.55,1.605 -3.99,1.605z" fill="#f9f9f9"></path></g></g></svg>